<svg width="512" height="512" xmlns="http://www.w3.org/2000/svg">
 <g>
  <title>background</title>
  <rect x="-1" y="-1" width="514" height="514" id="canvas_background" fill="none"/>
 </g>

 <g>
  <title>Layer 1</title>
  <g id="icomoon-ignore"/>
  <path d="m464,0l-416,0c-26.4,0 -48,21.6 -48,48l0,416c0,26.4 21.6,48 48,48l208,0l0,-224l-64,0l0,-64l64,0l0,-32c0,-52.9 43.1,-96 96,-96l64,0l0,64l-64,0c-17.6,0 -32,14.4 -32,32l0,32l96,0l-16,64l-80,0l0,224l144,0c26.4,0 48,-21.6 48,-48l0,-416c0,-26.4 -21.6,-48 -48,-48z" id="svg_1" fill="#ffd24d"/>
 </g>
</svg>