<svg width="512" height="512" xmlns="http://www.w3.org/2000/svg">

 <g>
  <title>background</title>
  <rect fill="none" id="canvas_background" height="514" width="514" y="-1" x="-1"/>
 </g>
 <g>
  <title>Layer 1</title>
  <g id="icomoon-ignore"/>
  <path fill="#ffd24d" id="svg_1" d="m464,0l-416,0c-26.4,0 -48,21.6 -48,48l0,416c0,26.4 21.6,48 48,48l416,0c26.4,0 48,-21.6 48,-48l0,-416c0,-26.4 -21.6,-48 -48,-48zm-272,384c-70.8,0 -128,-57.2 -128,-128s57.2,-128 128,-128c34.6,0 63.5,12.6 85.8,33.5l-34.8,33.4c-9.5,-9.1 -26.1,-19.7 -51,-19.7c-43.7,0 -79.4,36.2 -79.4,80.8s35.7,80.8 79.4,80.8c50.7,0 69.7,-36.4 72.6,-55.2l-72.6,0l0,-43.9l120.9,0c1.1,6.4 2,12.8 2,21.2c0,73.2 -49,125.1 -122.9,125.1zm256,-128l-32,0l0,32l-32,0l0,-32l-32,0l0,-32l32,0l0,-32l32,0l0,32l32,0l0,32z"/>
 </g>
</svg>