<svg id="Layer_1" data-name="Layer 1" xmlns="http://www.w3.org/2000/svg" viewBox="0 0 310.2 79.83"><defs><style>.cls-1{fill:#fff;fill-rule:evenodd;}</style></defs><title>logo-white</title><polygon class="cls-1" points="30.33 55.22 7.89 55.22 7.89 76.39 0 76.39 0 29.34 7.89 29.34 7.89 48.09 30.33 48.09 30.33 29.34 38.31 29.34 38.31 76.39 30.33 76.39 30.33 55.22"/><path class="cls-1" d="M185.19,399.53A18.13,18.13,0,0,1,197,396.82c-10.93,15-9.66,32.74-9.35,39.6-0.85-2.13-2-4.24-2.84-6.39a18.21,18.21,0,0,1,.41-30.5h0Zm24.24-1.11c-10.33,5-19.13,26.33-20.28,33.75a18.21,18.21,0,0,0,19.7-29Z" transform="translate(-134.49 -356.58)"/><path class="cls-1" d="M259.33,390.27H252v9.25h-4.66v4.73H252v21.68c0,1.77.3,4,1.85,5.14,1.73,1.28,5,1.45,7,1.45a34.19,34.19,0,0,0,4-.2v-5c-0.57,0-1.15,0-1.72,0a5.82,5.82,0,0,1-2.69-.51,2.67,2.67,0,0,1-1.19-2.52V404.26h5.59v-4.73h-5.59v-9.25Z" transform="translate(-134.49 -356.58)"/><path class="cls-1" d="M237.67,408.45h7.18a10.05,10.05,0,0,0-3.7-7c-2.79-2.17-6.73-2.71-10.16-2.71s-7.49.6-10.22,3a9.77,9.77,0,0,0-3.36,7.69,7.69,7.69,0,0,0,2.17,5.49c2,2.09,6.63,3.27,9.36,3.85,1.72,0.37,6.71,1.38,8.11,2.39a3.61,3.61,0,0,1,1.5,3,3.57,3.57,0,0,1-2,3.13,10.42,10.42,0,0,1-5,1,9.55,9.55,0,0,1-5.73-1.49,5.23,5.23,0,0,1-2-3.8h-7.45a10.81,10.81,0,0,0,4.11,7.53c3,2.15,6.91,2.72,10.49,2.72,3.76,0,8.35-.51,11.45-2.84a9.42,9.42,0,0,0,3.66-8,7.85,7.85,0,0,0-1.86-5.36c-1.75-2-6.79-3.31-9.28-3.9-2-.46-4-0.95-5.94-1.52a12.82,12.82,0,0,1-2.94-1.11,3.22,3.22,0,0,1-1.5-2.8,3.58,3.58,0,0,1,1.69-3,8.32,8.32,0,0,1,4.61-1.07,7.53,7.53,0,0,1,5,1.44A5.77,5.77,0,0,1,237.67,408.45Z" transform="translate(-134.49 -356.58)"/><path class="cls-1" d="M444.69,415.81c0-4.7-1.18-9.15-4.55-12.56s-7.42-4.61-12-4.61a16.4,16.4,0,0,0-11.93,4.5c-3.48,3.37-4.63,7.93-4.63,12.66s1.18,9.25,4.64,12.63A16.3,16.3,0,0,0,428.12,433c4.58,0,8.72-1.3,12-4.58s4.58-7.9,4.58-12.61h0Zm-7.55,0c0,2.83-.47,5.9-2.21,8.22a8,8,0,0,1-6.8,3.08,8.17,8.17,0,0,1-6.72-3c-1.83-2.3-2.29-5.49-2.29-8.34s0.46-6.12,2.37-8.39a8.26,8.26,0,0,1,6.64-2.91,8,8,0,0,1,6.82,3.12A13.77,13.77,0,0,1,437.14,415.8Z" transform="translate(-134.49 -356.58)"/><path class="cls-1" d="M405,390.27h-7.31v9.25H393v4.73h4.66v21.68c0,1.77.3,4,1.85,5.14,1.73,1.28,5,1.45,7,1.45a34.2,34.2,0,0,0,4-.2v-5c-0.57,0-1.15,0-1.72,0a5.82,5.82,0,0,1-2.69-.51,2.67,2.67,0,0,1-1.19-2.52V404.26h5.59v-4.73H405v-9.25Z" transform="translate(-134.49 -356.58)"/><path class="cls-1" d="M383.31,408.45h7.18a10.05,10.05,0,0,0-3.7-7c-2.79-2.17-6.73-2.71-10.16-2.71s-7.49.6-10.22,3A9.77,9.77,0,0,0,363,409.5a7.69,7.69,0,0,0,2.17,5.49c2,2.09,6.63,3.27,9.36,3.85,1.72,0.37,6.71,1.38,8.11,2.39a3.61,3.61,0,0,1,1.5,3,3.57,3.57,0,0,1-2,3.13,10.42,10.42,0,0,1-5,1,9.55,9.55,0,0,1-5.73-1.49,5.23,5.23,0,0,1-2-3.8H362a10.81,10.81,0,0,0,4.11,7.53c3,2.15,6.91,2.72,10.49,2.72,3.76,0,8.35-.51,11.45-2.84a9.42,9.42,0,0,0,3.66-8,7.85,7.85,0,0,0-1.86-5.36c-1.75-2-6.79-3.31-9.28-3.9-2-.46-4-0.95-5.94-1.52a12.83,12.83,0,0,1-2.94-1.11,3.22,3.22,0,0,1-1.5-2.8,3.58,3.58,0,0,1,1.69-3,8.33,8.33,0,0,1,4.61-1.07,7.53,7.53,0,0,1,5,1.44A5.77,5.77,0,0,1,383.31,408.45Z" transform="translate(-134.49 -356.58)"/><path class="cls-1" d="M359.61,417.79v-0.74c0-4.69-.82-9.95-4.08-13.55-2.95-3.24-6.84-4.46-11.16-4.46-4.53,0-8.88,1.16-11.87,4.77s-4,8.22-4,12.84,1,9,4.23,12.34,7.78,4.4,12.3,4.4a15.3,15.3,0,0,0,8.95-2.66,13.34,13.34,0,0,0,4.92-6.56h-7.47a5.6,5.6,0,0,1-2.22,2.55,7.87,7.87,0,0,1-4.27,1.15,8.87,8.87,0,0,1-6.42-2.34,10.47,10.47,0,0,1-2.7-6.82l-0.07-.93h23.87Zm-7.47-4.13h-16.2l0.12-1c0.61-4.82,3.11-8,8.19-8a7.16,7.16,0,0,1,5.44,2.26,9.42,9.42,0,0,1,2.37,5.76Z" transform="translate(-134.49 -356.58)"/><path class="cls-1" d="M309.22,399.53v32.56h7.31v-17c0-2.43.51-5,2.29-6.75s4.43-2.28,6.88-2.28c0.5,0,1.13,0,1.72,0v-6.87a12.36,12.36,0,0,0-11.26,6.24v-5.95h-6.93Z" transform="translate(-134.49 -356.58)"/><path class="cls-1" d="M278.69,432.09V414.85H291c4.1,0,7.94-1.09,10.69-4.27a15,15,0,0,0,3.74-10.16c0-4-1-7.76-3.78-10.65s-6.37-3.85-10.26-3.85h-21v46.16h8.34Zm10.09-23.86H278.69V392.51H288c2.23,0,4.79.33,6.63,1.71s2.39,3.72,2.39,5.94a8.26,8.26,0,0,1-2.07,6.07C293.35,407.81,291,408.23,288.79,408.23Z" transform="translate(-134.49 -356.58)"/><polygon class="cls-1" points="59.12 14.66 69.93 16.59 75.06 6.89 76.57 17.76 87.38 19.64 77.51 24.44 79.06 35.3 71.45 27.39 61.59 32.23 66.76 22.54 59.12 14.66"/><polygon class="cls-1" points="95.6 6.69 103.13 7.05 105.77 0 107.75 7.27 115.27 7.6 108.97 11.73 110.98 18.99 105.11 14.27 98.82 18.42 101.49 11.38 95.6 6.69"/><polygon class="cls-1" points="125.19 17.35 130.18 16.5 130.89 11.49 133.25 15.97 138.23 15.1 134.7 18.72 137.07 23.19 132.53 20.95 129.01 24.59 129.74 19.58 125.19 17.35"/></svg>