<svg id="Layer_1" data-name="Layer 1" xmlns="http://www.w3.org/2000/svg" viewBox="0 0 15.79 16.65"><defs><style>.cls-1{fill:#f3f1f6;fill-rule:evenodd;}</style></defs><title>person</title><g id="Tracciato_composito" data-name="Tracciato composito"><path class="cls-1" d="M14.63,10.64a15.46,15.46,0,0,0-4.15-1.3l0-.16A1.79,1.79,0,0,0,11.18,8l0.05-.42a1,1,0,0,0,.6-0.82L12,5.16a1,1,0,0,0-.22-0.74,1,1,0,0,0-.17-0.16l0-.36V3.77a3.06,3.06,0,0,0-.8-2.7A4.26,4.26,0,0,0,7.9,0a4.23,4.23,0,0,0-3,1,3.07,3.07,0,0,0-.82,2.72L4.18,4.26A1,1,0,0,0,4,4.43a1,1,0,0,0-.21.73L4,6.79a1,1,0,0,0,.6.82c0,0.14,0,.27,0,0.41a1.82,1.82,0,0,0,.68,1.17l0,0.16a15.58,15.58,0,0,0-4.18,1.31A2.25,2.25,0,0,0,0,12.73q0.08,0.87.17,1.72a2,2,0,0,0,1.54,1.7,39.1,39.1,0,0,0,6.18.49,39.16,39.16,0,0,0,6.2-.5,2,2,0,0,0,1.52-1.7l0.17-1.72A2.26,2.26,0,0,0,14.63,10.64Zm-0.41,3.67a0.61,0.61,0,0,1-.37.47A37.77,37.77,0,0,1,2,14.77a0.61,0.61,0,0,1-.39-0.47c-0.06-.57-0.12-1.14-0.17-1.72a0.86,0.86,0,0,1,.36-0.69,14.21,14.21,0,0,1,4.43-1.27,0.7,0.7,0,0,0,.61-0.8L6.64,8.7a0.69,0.69,0,0,0-.32-0.5A0.81,0.81,0,0,1,6,7.88c0-.36-0.08-0.71-0.12-1.07a0.7,0.7,0,0,0-.47-0.58l-0.1,0L5.23,5.43l0.11-.06a0.7,0.7,0,0,0,.3-0.66L5.52,3.64A1.75,1.75,0,0,1,5.9,2.07a2.9,2.9,0,0,1,2-.67,2.91,2.91,0,0,1,2,.69,1.74,1.74,0,0,1,.36,1.54V3.78c0,0.29-.07.57-0.1,0.86V4.7a0.7,0.7,0,0,0,.3.66l0.11,0.06-0.08.78-0.1,0a0.7,0.7,0,0,0-.48.58L9.79,7.88a0.79,0.79,0,0,1-.31.33,0.7,0.7,0,0,0-.32.49L9,9.84a0.7,0.7,0,0,0,.61.79A14.15,14.15,0,0,1,14,11.89a0.87,0.87,0,0,1,.39.7Z"/></g></svg>