<svg id="Capa_1" data-name="Capa 1" xmlns="http://www.w3.org/2000/svg" viewBox="0 0 521 512.5"><defs><style>.cls-1{fill:#fff;stroke:#fff;stroke-miterlimit:10;stroke-width:9px;}</style></defs><title>server</title><path class="cls-1" d="M481.08,408.43c-3.66-35-32.87-62.57-67.87-62.57a68.08,68.08,0,0,0-55.3,29,43.61,43.61,0,0,0-7.53-.65c-19.8,0-37.38,13.46-43.23,32.54a54.86,54.86,0,0,0-26.59,47c0,29.93,23.77,54.26,53,54.26h91.94c0.51,0,1,0,1.46-.07s1.06,0.07,1.6.07h36.78c27.52,0,49.91-22.93,49.91-51.11C515.22,434.71,501.21,415.31,481.08,408.43Zm-15.77,82.5-37.14,0-1.45-.05-93.2.08c-19.8,0-35.91-16.69-35.91-37.2a37.59,37.59,0,0,1,20.63-33.58l3.71-1.83,0.87-4.05c2.82-13.31,14.41-23,27.55-23a27.41,27.41,0,0,1,8.7,1.43l6.63,2.23,3.48-6.07c9.35-16.26,25.8-26,44-26,27.86,0,50.82,23.44,51.18,52.25l0.09,6.94,6.82,1.32c15.56,3,26.85,17.08,26.85,33.44C498.15,475.66,483.42,490.93,465.31,490.93Z"/><path class="cls-1" d="M94.1,55.7a38.4,38.4,0,1,0,38.4,38.4A38.45,38.45,0,0,0,94.1,55.7Zm0,59.73A21.33,21.33,0,1,1,115.43,94.1,21.35,21.35,0,0,1,94.1,115.43Z"/><circle class="cls-1" cx="431.17" cy="81.3" r="8.53"/><circle class="cls-1" cx="397.03" cy="81.3" r="8.53"/><circle class="cls-1" cx="448.23" cy="106.9" r="8.53"/><circle class="cls-1" cx="414.1" cy="106.9" r="8.53"/><circle class="cls-1" cx="362.9" cy="81.3" r="8.53"/><circle class="cls-1" cx="379.97" cy="106.9" r="8.53"/><circle class="cls-1" cx="328.77" cy="81.3" r="8.53"/><circle class="cls-1" cx="345.83" cy="106.9" r="8.53"/><circle class="cls-1" cx="294.63" cy="81.3" r="8.53"/><circle class="cls-1" cx="311.7" cy="106.9" r="8.53"/><path class="cls-1" d="M516.5,144.38V43.82A39.36,39.36,0,0,0,477.18,4.5H43.82A39.36,39.36,0,0,0,4.5,43.82V144.38a39.09,39.09,0,0,0,15.16,30.79A39.12,39.12,0,0,0,4.5,206V306.51A39.09,39.09,0,0,0,19.66,337.3,39.12,39.12,0,0,0,4.5,368.09V468.65A39.36,39.36,0,0,0,43.82,508H243.43V490.9H43.82a22.28,22.28,0,0,1-22.25-22.25V368.09a22.28,22.28,0,0,1,22.25-22.25H328.77V328.77H43.82a22.28,22.28,0,0,1-22.25-22.25V206A22.28,22.28,0,0,1,43.82,183.7H477.17A22.28,22.28,0,0,1,499.42,206V328.77h17.07V206a39.09,39.09,0,0,0-15.16-30.79A39.1,39.1,0,0,0,516.5,144.38ZM43.82,166.63a22.28,22.28,0,0,1-22.25-22.25V43.82A22.28,22.28,0,0,1,43.82,21.57H477.17a22.28,22.28,0,0,1,22.26,22.25V144.38a22.28,22.28,0,0,1-22.25,22.25H43.82Z"/><path class="cls-1" d="M55.7,256.23a38.4,38.4,0,1,0,38.4-38.4A38.45,38.45,0,0,0,55.7,256.23Zm59.73,0A21.33,21.33,0,1,1,94.1,234.9,21.35,21.35,0,0,1,115.43,256.23Z"/><circle class="cls-1" cx="431.17" cy="243.43" r="8.53"/><circle class="cls-1" cx="397.03" cy="243.43" r="8.53"/><circle class="cls-1" cx="448.23" cy="269.03" r="8.53"/><circle class="cls-1" cx="414.1" cy="269.03" r="8.53"/><circle class="cls-1" cx="362.9" cy="243.43" r="8.53"/><circle class="cls-1" cx="379.97" cy="269.03" r="8.53"/><circle class="cls-1" cx="328.77" cy="243.43" r="8.53"/><circle class="cls-1" cx="345.83" cy="269.03" r="8.53"/><circle class="cls-1" cx="294.63" cy="243.43" r="8.53"/><circle class="cls-1" cx="311.7" cy="269.03" r="8.53"/><path class="cls-1" d="M55.7,418.37A38.4,38.4,0,1,0,94.1,380,38.45,38.45,0,0,0,55.7,418.37Zm59.73,0A21.33,21.33,0,1,1,94.1,397,21.35,21.35,0,0,1,115.43,418.37Z"/></svg>