<svg id="Layer_1" data-name="Layer 1" xmlns="http://www.w3.org/2000/svg" viewBox="0 0 79.11 35.3"><defs><style>.cls-1{fill:#3970b7;fill-rule:evenodd;}</style></defs><title>stars-blue</title><polygon class="cls-1" points="0 14.66 10.81 16.59 15.94 6.89 17.45 17.76 28.26 19.64 18.39 24.44 19.93 35.3 12.32 27.39 2.47 32.23 7.64 22.54 0 14.66"/><polygon class="cls-1" points="36.48 6.69 44.01 7.05 46.65 0 48.63 7.27 56.15 7.6 49.85 11.73 51.85 18.99 45.98 14.27 39.7 18.42 42.37 11.38 36.48 6.69"/><polygon class="cls-1" points="66.07 17.35 71.06 16.5 71.77 11.49 74.12 15.97 79.11 15.1 75.58 18.72 77.95 23.19 73.41 20.95 69.89 24.59 70.62 19.58 66.07 17.35"/></svg>